<svg width="32" height="32" viewBox="0 0 32 32" fill="none" xmlns="http://www.w3.org/2000/svg">
    <g clip-path="url(#clip0_1478_35760)">
        <path d="M6.61476 3.93069C11.7981 -1.25263 20.2019 -1.25263 25.3852 3.93069C30.5686 9.11401 30.5686 17.5178 25.3852 22.7012L16.2109 31.8755C16.0944 31.992 15.9056 31.992 15.7891 31.8755L6.61476 22.7012C1.43144 17.5178 1.43144 9.11401 6.61476 3.93069Z" fill="black"/>
        <path d="M17.75 14.4118H14.25C11.3505 14.4118 9 16.94 9 20.0588V21H23V20.0588C23 16.94 20.6495 14.4118 17.75 14.4118Z" fill="white"/>
        <path d="M21.001 9.41179C21.001 12.1732 18.7624 14.4118 16.001 14.4118C13.2396 14.4118 11.001 12.1732 11.001 9.41179C11.001 6.65039 13.2396 4.41179 16.001 4.41179C18.7624 4.41179 21.001 6.65039 21.001 9.41179Z" fill="white"/>
    </g>
    <defs>
        <clipPath id="clip0_1478_35760">
            <rect width="32" height="32" fill="white"/>
        </clipPath>
    </defs>
</svg>
